<svg xmlns="http://www.w3.org/2000/svg" width="1000" height="1000" viewBox="0 0 1000 1000"><g transform="translate(50 893)"><rect width="1000" height="1000" rx="6" transform="translate(-50 -893)" fill="#fff"/><path d="M14-783.8c0,3.2-.9,4.3-5.7,6.8-2.3,1.2-4.7,2.7-5.3,3.5-1.8,2.2-2.3,7.8-.7,9.9,1.6,2.2,7.9,3.3,15.6,2.8,4.6-.4,5.8-.9,9.3-4.4,3.7-3.7,4.2-3.9,5.1-2.2,2,3.5,5.6,6.4,8,6.4a8.732,8.732,0,0,1,4.8,2l2.4,1.9-3,2.4c-5,4.1-2.6,5.3,11.8,6,6.7.3,14.6,1.1,17.5,1.8,4.5,1.1,5.5,1.1,6.3-.2,1.4-2.3,1-5.5-1.1-8.2a10.56,10.56,0,0,1-2-5.5c0-2.8.5-3.2,6.8-5.6,7.6-2.9,11.9-3.3,14.7-1.2,1.9,1.4,1.9,1.5.2,3.3-2.1,2.4-1.3,3.3,3,3.3,4.7,0,5.5,2.6,1.7,5.6-3.8,3.1-4.1,9.8-.6,12.2a4.9,4.9,0,0,1,2.2,3.3c0,2.8,4.2,3.3,10.5,1.3l5.6-1.7,3.7,3.6a47.587,47.587,0,0,0,7.2,5.5c3.9,2.1,4.1,3.9,1,8.2a14.911,14.911,0,0,0-2.2,6c-.4,4.2-2.6,5-7.2,2.5-3-1.6-3.4-1.7-6.5-.1-4.5,2.4-6.1,1.5-6.1-3.3a10.863,10.863,0,0,0-1.9-6.2c-1.8-2.3-2.1-2.3-8.1-1.1-5.4,1.2-6.5,1.1-8.6-.3-1.3-.8-2.4-2-2.4-2.5s-1.7-2.1-3.7-3.4c-4.7-3.1-16.3-4.8-16.3-2.4,0,.8,1.1,2,2.4,2.6,2.6,1.2,2.6,4.1,0,6.3-.8.6-1.7,2.9-2,5.1-.9,5-3.5,6.8-10.2,6.8-5.7,0-11.3-2.3-14.6-5.9-1.9-2.1-1.9-2.1.2-2.1,2.8,0,5.2-1,5.2-2.2a10.11,10.11,0,0,0-2-3.5c-2.2-2.8-1.9-4.3.9-4.3,2.4,0,5.8-3.7,4.5-5-2.6-2.6-35.5-5.3-36.9-3-.3.6,3.1,2.8,7.7,4.9,9,4.2,12.4,7.1,11.4,9.6-1.1,2.9-3.5,2.7-16.1-1-14.1-4.1-17.8-4.2-18.3-.6a4.225,4.225,0,0,0,.6,3.3c.5.5,4.8,1.3,9.6,1.8a75.7,75.7,0,0,1,12.3,2.1c5.8,1.9,2,2.9-11,2.9H1.9l.3,2.6c.2,2.1,1.4,3,5.5,4.8,2.8,1.2,6,2.9,7,3.9,3.6,3.2,9.6,1.7,12.8-3.2,1.1-1.7,2.4-3.1,2.8-3.1.5,0,2,1.4,3.5,3.1a21.171,21.171,0,0,0,6.9,5c4.8,2.1,5.2,3.3,2.2,6.5-1.2,1.3-1.9,3-1.6,3.8.9,2.3,7.3,2,11.4-.5,2.8-1.7,3.9-1.9,5.8-1.1a5.817,5.817,0,0,1,2.9,2.9c1.3,4.1,13.5,5.8,17.6,2.5,1.7-1.3,2-2.4,1.5-4.4a9.012,9.012,0,0,0-2.1-3.9c-2.7-2.2-1.6-4.6,2.4-5.6,4.8-1.1,5-4,.5-6.8-3.9-2.4-4.5-3.9-3.5-8.5,1.1-5.2,4.3-5.1,13.3.2a108.948,108.948,0,0,0,35.7,13.4c12.1,2.3,15.5,2,18.8-1.9a40.441,40.441,0,0,0,3.9-5.2c.9-1.6,1.4-1.3,3.8,2.4a16.6,16.6,0,0,0,7.3,6.1c4.7,2.1,5.3,3,2.9,5-2.1,1.7-1.9,3.7.5,5.2,2.6,1.6,2.6,3.1.1,2.3-2.2-.7-4.1,1.8-3.8,5,.2,1.7-.3,1.9-2.8,1.7a50.08,50.08,0,0,0-14.2.3c-3.3.7-3.3.7-3.3-3.3,0-3.3-.6-4.5-3.5-7-7.3-6.4-18.6-9.1-24.5-5.7a14.143,14.143,0,0,1-5.1,1.5c-3.8,0-6.2,3.2-6.3,8.4-.1,5.6,2.8,8.9,9.1,10.5,4.2,1.1,4.6,1,6.9-1.4a15.272,15.272,0,0,1,2.6-2.5,46.055,46.055,0,0,1,5.1,4.5c3.8,3.5,5.5,4.5,8.3,4.5,4.1,0,4.3,1.2.9,5.6a13.577,13.577,0,0,0-2.8,8l-.2,4.7-8,.2c-4.4.1-8.9.4-10,.6-1.7.3-2-.2-2.1-3.1-.1-1.9-.2-4.5-.3-5.6-.1-2.4-4.5-7.6-7.7-9.3a16.634,16.634,0,0,0-6.5-.9,14.316,14.316,0,0,1-8.9-2.9,50.56,50.56,0,0,0-10.5-4.7c-3.3-.9-8.5-2.4-11.5-3.3-3.9-1.1-8.6-1.5-16.5-1.3-21.4.5-26,.4-27.9-.7-1.3-.7-2.7-.7-4.7,0-2.3.9-3.2.8-4.8-.7a6.861,6.861,0,0,0-5.3-1.4c-3.2.3-3.3.4-3.6,5.4-.2,4.2.1,5.4,2.2,7.7,3.5,3.8,6.9,4.4,10.6,1.7,2.9-2.1,3.5-2.2,7.3-1a122.353,122.353,0,0,1,12.6,5.7c8.2,4.2,12.4,5.2,13.5,3.4.8-1.3-4-10.7-5.8-11.4-.9-.4-1.6-1.1-1.6-1.7,0-1.5,4.3-1.2,6.6.5,2.4,1.8,7.1,1.9,8.1.1a9.044,9.044,0,0,1,2.9-2.4c1.8-1,2.7-.6,6,2.4,2.2,1.9,5.2,3.8,6.7,4.1a7.947,7.947,0,0,1,4.2,2.6c1.3,1.8,1.3,2.3,0,3.7-1.8,2-1,3,2.5,3a7.01,7.01,0,0,1,4.6,2.1c1.6,1.7,1.6,2.2.4,3a3.954,3.954,0,0,1-3,.3,34.893,34.893,0,0,0-5.1-1.1c-3-.4-3.8-.1-5.2,2a7.074,7.074,0,0,1-3.9,2.9c-1.3.2-2.3,1-2.3,1.8,0,2.1,7.2,6.6,12.8,7.9,6.6,1.5,9.6.1,11.8-5.8,1.4-3.9,2.3-4.8,6.9-6.8,4-1.8,5.6-2,6.6-1.2,2.1,1.7,1.7,2.6-1.5,3.7-3.7,1.3-5.6,4.5-4.1,7.1.5,1.1,2.8,2.8,5,3.8,4.5,2,4.8,3.3,2.1,7.2-3.5,4.9-3.6,7.5-.3,11.2a45.083,45.083,0,0,1,4.5,6.5c2.5,4.8,4.4,5,8.3.7,1.9-2,3.4-4.3,3.4-5,0-2,2.8-1.5,3.5.6a12.691,12.691,0,0,0,8.6,8.1c4.4,1.2,4.8,2.5,1.9,7.2a15.651,15.651,0,0,0-2,6.8c0,5.5-1,6.4-5.6,5.1a42,42,0,0,0-9.1-1.1c-2.9,0-5.3-.4-5.3-1,0-.5-1.2-2-2.6-3.3-2.1-2-4-2.5-9.9-2.9-5.4-.4-8.4-1.1-11.7-3.1-9.6-5.6-15.8-4-15.8,4.2,0,5-1.9,6.5-6.9,5.7a18.5,18.5,0,0,0-8,.9c-3.8,1.3-4.2,1.3-5.1-.5a16.215,16.215,0,0,1-1-5.7,11.871,11.871,0,0,0-1.5-5.9c-3.1-4.1-1.4-7.4,3.9-7.4,3.4,0,3.8-1.1,1.4-3.7a7.5,7.5,0,0,0-4.9-2.3,19.155,19.155,0,0,1-5.6-1.1c-1.5-.7-7.1-1.4-12.3-1.8-8.9-.6-9.6-.7-10.7-3.2a8.744,8.744,0,0,0-5-3.8c-3.5-1.1-4.2-1-8.6,1.4l-4.8,2.7.3,11.6.3,11.6,4.6,1.7a37.43,37.43,0,0,1,8,4.1,18.326,18.326,0,0,0,9.4,3.2c5.2.6,6.6,1.2,10,4.5,2.2,2.1,5.4,4.3,7,4.8,3.7,1.2,4.3,3.5,1.4,6.2-1.7,1.5-2.2,3.3-2.4,7.5-.1,3.1-.5,5.9-.9,6.3-.3.4-2-.1-3.5-1-3.5-2-8-2.2-10.6-.4-1.3,1-1.5,1.6-.6,2.2,2.2,1.3,12.4,3.3,20.8,4,7.6.7,8.2.6,9.2-1.4,1.9-3.4,6.2-2.7,11.7,2,2.7,2.2,6,4.2,7.4,4.5a17.847,17.847,0,0,1,6,3.4l3.5,2.8-3,.7c-7.3,1.5-9,2.2-9.3,3.6-.2,1.2,1.6,2,7.5,3.4,9.7,2.2,14.9,4.8,15.8,7.7a8.674,8.674,0,0,0,7.1,6.4c4.1.7,4.1,1.4.9,7.8a23.1,23.1,0,0,0-2.5,8.3c0,4-2.2,5.3-5,2.8-1.5-1.3-3-1.6-6.2-1.2-5,.7-7.8-.6-7.8-3.6,0-1.2-1.1-4.4-2.4-7.2-1.4-2.7-2.2-5.3-2-5.7.3-.4,2-1,3.9-1.4,4.6-.8,8-4.5,6.6-7.2-1-1.8-2.4-2-16.8-2.4-11.6-.4-16.8-.9-19.5-2.2A32.18,32.18,0,0,0,40.3-543c-4-.1-7.8-.7-9.3-1.5-2.7-1.6-12.7-1.9-22.9-.9-5.6.6-6.1.9-6.1,3.1A9.262,9.262,0,0,0,3.2-538c1,1.5.9,2.4-.1,4.4-1.3,2.3-1.2,2.7,1,4.5A10.076,10.076,0,0,0,7.7-527c2.5,0,8.3,3.4,8.3,4.8,0,1.1-1.5,1.3-6.7,1l-6.8-.3v6.5c0,5.9.2,6.5,2,6.2a67.44,67.44,0,0,1,7.7-.3c5.1.1,5.9-.2,8.2-3,3.2-3.8,3.2-4.5.1-9.1-3.6-5.3-3.3-7.4,1.1-8.2,3.9-.8,5.3-2.9,3.6-5.7-1.7-2.7-1.5-5.9.4-5.9,2.6,0,23,11,27.4,14.7,2.2,1.9,3.7,3.9,3.4,4.5-.4.6-3.2.7-7.3.3-7.8-.8-9.3.2-8.9,5.9.1,1.9-.1,3.8-.5,4.2-.3.4-2.7.1-5.2-.6-3.5-1-5.2-1-7-.2-5.6,2.6-1.5,5.5,8.9,6.4,25.1,2.3,26.6,2.3,26.6.1,0-1.3-1.5-3-4-4.7-2.8-1.8-3.8-3.1-3.3-4.2.9-2.5,8-1.1,16.4,3.3,4,2.1,8.6,4.5,10.3,5.4,2.7,1.4,12.6,1.8,78.6,2.8,61.8.9,79.1,1.5,95.5,3.1a431.21,431.21,0,0,0,67.4,1.1c11.8-.7,12.5-.8,14.7-3.5,2-2.2,2.4-3.8,2.3-8.4-.1-3.8-.4-4.8-.8-3.2a20.14,20.14,0,0,1-1.8,4.5c-1.3,2-1.3,2-3.2-.4-1.9-2.5-3.5-2.5-12.3-.5-2.8.6-2.8.6-2.8-4.7,0-3.8-.6-6.1-2-7.9-2.9-3.7-2.5-5.7,1.3-6.4,2.2-.5,4.2-2,6.5-5.1,3.7-5.1,4.6-5.4,6.3-2.3,2.3,4.6,5.2,6.8,8.6,6.8,2.6,0,3.4-.5,3.9-2.5s1-2.3,3.4-1.9a8.837,8.837,0,0,0,5.1-.6c6.2-3.4,8.5-10.3,7.5-23.3-.8-11.8-1.9-15.6-5.3-18.3-2.7-2.2-2.7-2.2-.9-4.2,4.6-5.2,5.9-17.7,2.9-28.6-2-7.5-2.5-8.2-7.1-9.7a83,83,0,0,1-9.3-3.9c-9.4-4.6-12.4-5.3-16.4-3.9-4.3,1.6-5,.9-4.7-4.2a10.487,10.487,0,0,0-1.6-6.7c-1-1.5-2.2-3.2-2.6-3.9-.4-.8,1.1-2.1,4.4-3.8,2.8-1.4,5.6-3.7,6.2-5,1.6-3.6,3.9-4,6.1-1a23.775,23.775,0,0,0,6.7,5c2.7,1.4,5.2,2.9,5.5,3.5.4.6-.7,2.6-2.4,4.6-1.7,1.9-3.1,4.3-3.1,5.3,0,4.7,6.2,8,15.2,8.1,6.6,0,6.8-.3,6.8-9.5,0-9.9-1.2-14.1-5.1-17.6l-2.9-2.6,2.5-1.1c2.9-1.4,3.6-5.5.8-5-3.9.6-6.1-3.5-2.4-4.5,1.4-.3,2.1-1.7,2.6-4.3.3-2.2,1-6,1.6-8.6,1.1-5.1.6-9.3-1.9-14.6-1.5-3-1.4-3.5.6-7.7,2-4,2.2-6.2,2.2-18.8,0-7.8-.4-14.7-.8-15.4s-2.6-2-4.7-2.9c-6.8-2.8-7.1-3.4-3.4-6.5l3.3-2.7-1.3-5.8c-2.2-9.5-5.6-19.2-7.6-21.4l-1.9-2.1-120.6.2c-118.9.2-120.6.1-131.5-1.9a140.354,140.354,0,0,1-16.3-4.1l-5.3-2-1.8,4.2c-2.7,6.4-4.3,7.2-13,7.1-7.7,0-10-.8-18.6-6.4a42.779,42.779,0,0,0-4.5-2.6c-.8-.3-2.5-1-3.8-1.5s-2-1.4-1.7-1.9c.4-.6-1.7-1-5.4-1C14.4-786,14-785.8,14-783.8Zm258,16.3c0,2,5.8,6.5,8.4,6.5,4.3,0,5.2,3.2,2,7.1-.8.8-1.7,4.4-2,8-1,9.8-3.5,13.1-5.2,6.6-.8-3-1.1-3.2-5.6-3.5-2.6-.2-5.4.2-6.1.8-2.3,1.9-3.5.2-3.5-5.1,0-3.5-.6-5.8-2.1-7.9-2.6-3.4-1.9-6,1.4-6,1.6,0,4-1.6,6.8-4.4C270.2-769.7,272-770.4,272-767.5ZM153-765c0,1,5.7,4,7.8,4a4.824,4.824,0,0,1,3.2,1.5c1,1.3.8,2.2-1.5,5.5s-2.7,4.6-2.1,8c.8,5-1,6.1-5.7,3.5-2.9-1.5-3.7-1.6-8.2-.3-3.8,1.1-5.7,1.2-8.2.3-4.6-1.6-5-2.4-1.5-3.1,4.4-.9,4.9-3.5,1.8-8.8-2.8-4.8-2.4-5.8,2.4-6.9a17.337,17.337,0,0,0,6-4.2c3.2-3.3,3.6-3.4,4.7-1.8A6.164,6.164,0,0,1,153-765Zm60.9,0c2.1,2.2,4.7,4,5.7,4a5.037,5.037,0,0,1,3.2,1.2c1.7,1.7,1.5,6.9-.4,8.3-.9.6-1.9,2.9-2.3,5.1l-.6,3.9-7,.1a42.673,42.673,0,0,0-9.7.9c-2.4.6-2.8.4-2.8-1.3a4.824,4.824,0,0,0-1.5-3.2c-1.4-1.2-1.4-1.5,0-3,2.2-2.4,1.8-4.5-1.1-5.8-1.8-.9-2.4-1.9-2.2-3.5.2-1.8,1.1-2.3,4.7-2.8,2.5-.3,4.7-1.1,4.9-1.7.4-1.4,4.2-6.2,4.8-6.2C209.9-769,211.8-767.2,213.9-765Zm120,0c2.5,2.6,4.7,4,6.4,4,3.4,0,3.9,1.8,1.3,6a25.735,25.735,0,0,0-2.6,8.5c-.4,4.3-.8,5-2.5,4.7-6.7-1.2-10.5-1.2-12.6-.2-1.9,1.1-3,.8-7.6-1.6-2.9-1.6-5.3-3.2-5.3-3.7,0-.4,1.8-.7,4-.7,5.3,0,6.2-2.1,2.5-6-3.7-3.8-3-6.4,1.7-6.8a7.275,7.275,0,0,0,5.8-3c2.9-4,4-5.2,4.6-5.2C329.9-769,331.8-767.2,333.9-765Zm-30.7,26.9a19.457,19.457,0,0,0,6.5,5.5c4.6,2.3,5.2,3.9,2.6,7.6a18.011,18.011,0,0,0-2.3,7c-.5,4.1-.8,4.5-3.4,4.8-1.6.2-3.3-.1-3.9-.7-1.5-1.5-3.9-1.4-7.5.5-4.1,2-5.2,1.2-5.2-3.7a15.262,15.262,0,0,0-2.5-7.9,32.466,32.466,0,0,1-2.5-4.4c0-.3,1.6-1.3,3.5-2.2a24.382,24.382,0,0,0,7.2-6.1c2-2.4,4-4.2,4.4-4.1A17.763,17.763,0,0,1,303.2-738.1Zm-119.5.5a19.3,19.3,0,0,0,6.8,5.6l4.6,2.2-2.6,4.4c-2.7,4.7-2.6,6.4.5,6.4,5,0,13.7,4.6,19.2,10.2,3.2,3.2,6.6,5.8,7.6,5.8a7.093,7.093,0,0,1,3.7,1.4c1.8,1.3,1.8,1.4-.3,4.4a19.683,19.683,0,0,0-2.8,7.6c-.8,5.8-2.5,7.3-5.6,5.2a6.764,6.764,0,0,0-8.4-.1,7.9,7.9,0,0,1-4.1,1.5c-2.1,0-2.3-.4-2.3-5.9,0-4.5-.5-6.5-2.2-8.6-2.5-3.2-1.4-6.2,2-5.8s4.6-2.1,2.8-5.6c-1.3-2.5-2.3-3.1-6.3-3.6-2.7-.3-7.3-.9-10.3-1.3a35.113,35.113,0,0,0-9.8.2c-5,1.1-6.2.1-6.2-4.9a12.592,12.592,0,0,0-2-6c-2.7-4.1-2.5-5.2,1.3-7,4.2-2.1,5.9-3.4,8-6.8C179.6-741.8,181-741.7,183.7-737.6Zm62.3,2.1c2.4,2.5,5,4.5,5.6,4.5,2.1,0,2.5,1.7,1.2,4.7a36.9,36.9,0,0,0-1.7,7.8c-.6,5-.6,5-4.1,4.7a100.969,100.969,0,0,0-13.5,0c-2.9.3-3,.2-3.1-4.4a12.526,12.526,0,0,0-2.3-7.4,13.669,13.669,0,0,1-2.1-3.5c0-.5,2.3-2,5-3.4,2.8-1.4,5-3.1,5-3.8,0-1.8,2.1-3.7,4-3.7C240.9-740,243.6-738,246-735.5Zm26.7,26.6a30.376,30.376,0,0,0,7.6,5.5c5.2,2.7,5.6,3.6,2.6,6.2a8.383,8.383,0,0,0-3,9c1.4,4.7.1,5.7-5.4,4.2-3.7-1-5.3-1-8.4,0-4.8,1.5-6.1.8-6.1-3.3a22.261,22.261,0,0,0-2.5-8.1A37.089,37.089,0,0,1,255-701c0-.4,1.4-1,3.2-1.4,3.5-.7,6.8-3.2,6.8-5.2,0-1.5,2.7-4.4,4.1-4.4C269.6-712,271.2-710.6,272.7-708.9Zm62.2,1.9c2.2,2.2,4.9,4,6.1,4,3.1,0,3.5,2.4,1.1,7.3a19.438,19.438,0,0,0-2.1,6.6c0,4.9-4.6,8.1-7.6,5.2-.5-.6-3.4-1.1-6.4-1.3l-5.5-.3-.3-4.5c-.2-3.6-.9-5-3.3-7.1l-3.1-2.7,2.3-1.6a9.067,9.067,0,0,1,3.7-1.6c.7,0,3.1-1.8,5.3-4s4.4-4,4.9-4S332.7-709.2,334.9-707ZM183.4-679c2.4,3.7,3.7,4.4,9.1,5.2,3,.5,3,3.6.1,6.3-2.2,2-2.6,3.3-2.6,8,0,4.8-.3,5.5-1.9,5.5a3.234,3.234,0,0,1-2.5-.9c-.9-1.5-5.5-1.9-7.2-.7-1.4,1-1.3,1.4.5,3,2.7,2.4,2.7,4.6,0,4.6-1.7,0-12.3-4.7-28.8-12.8-3.6-1.8-4.9-3.8-3.4-5.3s10,.9,15.5,4.3c2.6,1.6,5.5,2.8,6.5,2.6,2.8-.6,2.1-6.4-1.1-9.7-3.5-3.6-3.3-5.1.7-5.1,3.5,0,6.4-2,9-6.3,1-1.5,2.1-2.7,2.6-2.7S181.9-681.2,183.4-679Zm61,1.1a20.938,20.938,0,0,0,7.9,4.3c2.2.7,2.2,3.4,0,5.8-.9,1.1-1.8,4.2-2.1,7.4-.4,5.1-.7,5.5-2.6,5-7.3-1.7-9.7-1.8-12.1-.2-4.4,2.9-5.5,2.2-5.5-3.8,0-3.8-.6-6-2-7.9-2.9-3.7-2.5-5.5,1.7-7.2a23.109,23.109,0,0,0,7.1-5.3c3.3-3.5,3.4-3.6,4.7-1.7C242.3-680.4,243.6-678.8,244.4-677.9Zm58.1-2.2c1.9,3.8,5.2,6.1,8.7,6.1,3.2,0,3.8,2.3,1.4,4.9-.8.9-2,3.9-2.7,6.6-.6,2.8-1.3,5.5-1.5,6.1q-.15,1.2-7.2.6c-4.5-.3-7.2-.1-7.6.7a2.951,2.951,0,0,1-2.2,1.1c-1,0-1.4-1.3-1.4-5.2,0-4.5-.4-5.7-3.1-8.4-3.9-4.1-3.4-6.4,1.5-6.4,2.9,0,4.1-.7,7.3-4.5,2-2.5,4.1-4.5,4.5-4.5S301.6-681.7,302.5-680.1Zm31.2,4.6c.5,1.5-5,4.5-8.1,4.5-3.4,0-3.6-3.6-.3-5C328.1-677.2,333.2-676.8,333.7-675.5ZM272-652.6c0,1.8,4,5.2,7.4,6.3,4.4,1.4,5.5,3.7,3.1,6.3-1.5,1.6-2,3.7-2.1,7.9-.1,5.6-.1,5.6-3,5.3a80.46,80.46,0,0,0-13.9,0c-2.7.3-3,0-3.5-3.2-.7-3.8-3.4-9.5-5-10.5-1.9-1.2-1-2.3,3.3-4.4a36.844,36.844,0,0,0,8.1-6C270.2-654.8,272-655.3,272-652.6ZM155.2-653c.5,0,.7,1.2.3,2.9-.5,2.6-.3,3,2.7,4.1,1.8.7,7.9,1.5,13.6,1.7,10.1.6,10.2.6,13.2,4,5.1,5.7.7,7.6-5.3,2.3a12.587,12.587,0,0,0-15.3-.9c-3.2,2-3.7,3-4.7,10.9-.2,1.1-1.6,1.5-5.9,1.5-4,.1-6.3.6-7.6,1.8-1.8,1.7-2.1,1.7-3.6.2-1.7-1.8-1.9-2.5-1.6-6.8.1-1.5-.8-4.6-1.9-6.8-2.7-5-2.6-5.5.4-6.3,1.3-.3,4.6-2.6,7.2-5.1s5.4-4.3,6.1-4A7.921,7.921,0,0,0,155.2-653Zm58.3,2.3a30.647,30.647,0,0,0,7.5,5.2c4.6,2.1,4.7,2.6,2.1,6.9a26.225,26.225,0,0,0-2.6,7.3c-.8,4.9-3,6.2-7.6,4.3-2.4-1.1-3.9-1-8.5.5-6,1.9-7.5,1.5-5.6-1.5,1.8-3,1.5-6.2-1.3-12.2-1.4-2.9-2.5-6-2.5-6.9,0-2.4,3-3.2,5-1.4,2.6,2.4,4.6,1.8,6.9-2,1.1-1.9,2.3-3.5,2.6-3.5A21.428,21.428,0,0,1,213.5-650.7Zm-29.2,28.8a17.633,17.633,0,0,0,6.2,5.5c3.9,1.6,4.4,3.7,1.8,6.7-1.2,1.2-1.8,3.6-1.9,6.6-.1,6.8-.7,7.4-5.6,5.4-3.3-1.3-4.6-1.4-7.2-.5-6,2.2-7.6,1.2-7.6-4.5a17.8,17.8,0,0,0-2.1-6.3c-2.6-4.6-2.1-6.6,2.1-7.5,2-.4,4.1-2.1,6.3-5,1.8-2.5,3.7-4.4,4.2-4.4C181.1-625.9,182.8-624.1,184.3-621.9Zm58.8.5a16.6,16.6,0,0,0,6.7,5.5c4,1.7,5.4,4.1,3.2,5.4-2.1,1.3-3.7,6.9-2.7,9.2,1,2.2,1.7,2.5,6.2,2.7a2.676,2.676,0,0,1,2.3,2c.4,1.7-.1,1.8-5.1,1.2a86.482,86.482,0,0,1-9.9-2c-3.7-1.2-4.9-1.2-7.8,0-5.2,2.2-6.3,1.3-5.5-4.5.6-4.5.5-5-2.4-7.4-1.7-1.4-3.1-3-3.1-3.5,0-.6,1.9-1.9,4.3-3a23.208,23.208,0,0,0,7.1-5.6c1.5-2,3.1-3.6,3.5-3.6C240.4-625,241.8-623.4,243.1-621.4Zm60.4.1a17.933,17.933,0,0,0,6.6,4.8c3.9,1.3,4.8,3.8,2.4,6.5a19.979,19.979,0,0,0-2.9,6.2c-1.8,6.2-4.8,7.6-12.2,6-6.1-1.2-7.4-2.3-7.4-6.1a11.971,11.971,0,0,0-2.5-5.7c-2.8-3.6-2.7-3.9,3.3-7.5a16.721,16.721,0,0,0,5-4.9C298-625.9,299.6-625.8,303.5-621.3ZM94-592.5c2.6,4.2,4.8,5.5,8.9,5.5,3.6,0,3.9,1.5,1,4.6s-2,4.8,4.7,8.1c3.1,1.5,5.7,3.3,5.8,3.8.1,1.4-30.3,2.3-31.9,1-.7-.6-1.5-3-1.8-5.4-.4-3.2-1.3-5-3.3-6.6-3.4-2.7-2.7-5.5,1.3-5.5,3.6,0,6.9-2.3,8.8-6.1C89.5-596.9,91.4-596.8,94-592.5Zm58-2.7c0,1.8,6.3,7.1,9,7.7,4.2.9,4.6,2.2,2,5.8-3.4,4.5-3.3,10.7.3,14.4,1.5,1.6,2.7,3.2,2.7,3.6,0,1.9-4.3.3-9.1-3.3-3-2.2-5.6-4-6-4a25.08,25.08,0,0,0-4.4,1.6c-5.3,2.2-6.5,1.4-6.5-4.6,0-3.6-.6-5.9-2.1-7.9-2.2-3-1.9-5.1.8-5.1,2.4,0,6.8-3,8.9-6.1C149.4-595.8,152-597,152-595.2Zm62,3.2c1.8,3.5,2.5,4,5.4,4,4.8,0,6,1.9,3.6,5.8a22.213,22.213,0,0,0-2.6,7.5,16.432,16.432,0,0,1-2.2,6c-1.4,1.6-1.7,1.6-4.9-.3-3.3-1.9-3.3-1.9-7.8,0-5.1,2.2-5.9,1.6-5-3.9.6-3.4.2-4.3-2.4-7.4-4-4.5-4-6.7,0-6.7,4.1,0,6.3-1.3,8.9-5.5,1.2-1.9,2.8-3.5,3.6-3.5C211.3-596,212.9-594.2,214-592Zm59-1.5c1.5,2.8,6.8,6.5,9.3,6.5,2.9,0,2.9,2.1.1,6.1a13.92,13.92,0,0,0-2.8,8.7c-.1,4.6-.2,4.7-3.1,4.4-1.6-.2-5.9-.5-9.5-.5l-6.5-.2-.5-5a19.9,19.9,0,0,0-2.8-8.2c-2.8-3.9-2.8-5.3-.1-5.3,3.4,0,8.3-2.8,10.4-6C269.9-596.7,271.2-596.8,273-593.5Zm60.5,1.9a16.227,16.227,0,0,0,6.7,4.1,30.123,30.123,0,0,1,4,1.1c.4.3-.7,3-2.3,6.1-1.9,3.6-2.8,6.5-2.5,7.9.8,3.2-.9,3.9-8.5,3.5-4.1-.1-6.9.2-7.3.8a2.951,2.951,0,0,1-2.2,1.1c-1,0-1.4-1.4-1.4-5.3,0-4.4-.4-5.8-2.5-7.7a7.813,7.813,0,0,1-2.5-4.7c0-1.9.5-2.3,3.1-2.3,4.1,0,6.6-1.5,8.4-5,.9-1.7,2-3,2.6-3C329.6-595,331.6-593.5,333.5-591.6Zm-88.8,16.8c3.2,3.1,4.1,4.8,2.6,4.8-1.1,0-8.3-6.4-8.3-7.3C239-578.9,241.6-577.8,244.7-574.8ZM131-558.9c4.1,2.3,5.1,4.5,2.6,5.5-2.2.9-3.9,6-3.2,9.8.8,4.4-.5,5.2-5.6,3.5-3.2-1-4.9-1-8.5-.1-4.4,1.2-4.5,1.2-7.3-1.8-1.5-1.6-3.6-3-4.7-3-1,0-3.6-1.1-5.8-2.5a17.785,17.785,0,0,0-8.2-2.5c-5.2,0-6.2-1.4-3.2-4.7,2-2,3-2.4,5.8-1.9a13.213,13.213,0,0,1,6.2,3.2c3.1,3,5.3,2.7,7-1,.6-1.3,2.9-3.2,5-4.1a17.3,17.3,0,0,0,6.4-5.7l2.6-4,3.4,3.5A36.842,36.842,0,0,0,131-558.9Zm52.4-5.1c1.9,2.9,3.3,4,5.2,4,3.4,0,6.4,1.7,6.4,3.7,0,.9-1,2.7-2.2,4.1-1.8,1.8-2.3,3.6-2.3,7.3,0,5.6-1.2,6.6-5.5,4.4-3.7-1.9-6.4-1.9-8,0-3.1,3.7-7,.6-7-5.6a8.7,8.7,0,0,0-2.7-6.1c-2.4-2.5-2.5-2.9-1.1-4.5a13.46,13.46,0,0,0,2.1-3.6,3.305,3.305,0,0,1,3.1-1.7c3.7,0,5.7-1,6.7-3.6C179.3-568.9,180.3-568.6,183.4-564Zm67.1,5.6,3.9,3-2.3,3.1a14.184,14.184,0,0,0-2,11.2c.5,2-2.8,2.6-5.6,1.1-2.2-1.2-5.5-1-11.7.5-2.8.7-2.8.7-2.8-4.3a16.359,16.359,0,0,0-2.1-8.6l-2.1-3.5,3.4-2.1a13.882,13.882,0,0,1,4.5-2c.7,0,1.8-1,2.4-2.3a22.056,22.056,0,0,1,2.6-3.9c1.4-1.6,1.8-1.5,4.7,1.5C245.2-562.9,248.4-560.1,250.5-558.4ZM302-567c0,2.3,4.4,6.9,8.1,8.6,4.2,1.8,4.8,3.7,2.3,6.6-1,1-1.9,4.1-2.2,6.9-.6,6.1-1.9,6.8-7.8,4.6-3.6-1.3-4.5-1.3-6.1-.2a7.577,7.577,0,0,1-4,1.5c-2,0-2.3-.5-2.3-4.3a13.467,13.467,0,0,0-2.5-7.9,21.293,21.293,0,0,1-2.5-4.2,28.1,28.1,0,0,1,5-3.5c2.7-1.7,5.6-4.4,6.5-6.1C298-567.9,302-569.3,302-567ZM153.8-534.7c2,2.8,4.3,4.7,6.3,5.3,4.9,1.4,5.9,3.8,2.6,6.4-2.4,1.9-2.7,2.9-2.6,6.6.2,2.4,0,4.6-.3,4.9s-2.5.1-4.9-.4a18.7,18.7,0,0,0-8.8,0c-2.4.5-4.6.7-5,.4a14.4,14.4,0,0,1-.7-5.1c-.1-3.4-.8-5.2-2.8-7.3-3.6-3.7-3.3-4.7,1.7-5.4a9.881,9.881,0,0,0,7-3.8c1.5-1.8,2.7-3.9,2.7-4.6C149-540.1,150.6-539,153.8-534.7Zm60.3.1c2.3,2.6,5.2,4.7,6.9,5.1,4,.9,4.5,2.1,2.4,5.3a25.981,25.981,0,0,0-2.9,6.7c-1.4,4.8-4.2,6.5-10.5,6.5-5,0-9-2.2-9-4.9,0-1-1.1-3.9-2.5-6.5-2.8-5.3-2.7-6.1,1.2-7.1,3.1-.7,6.3-3.2,6.3-4.8,0-1.1,2.9-4.7,3.8-4.7A34.228,34.228,0,0,1,214.1-534.6Zm59.6,0c2.1,3,4.1,4.6,6.2,5.1,2.4.5,3.1,1.2,3.1,3.1,0,1.3-.4,2.4-.8,2.4-1,0-3,6-3.4,10-.3,2.4-.6,2.5-5.5,2.2a16.856,16.856,0,0,0-8.3,1.3c-3.9,2-5,1.3-5-3.3a19.771,19.771,0,0,0-2.5-8.1,21.2,21.2,0,0,1-2.5-5.2c0-.5,1.8-1.6,4-2.5a21.644,21.644,0,0,0,7.1-5.5c1.7-2.1,3.4-3.9,3.8-3.9S272-537,273.7-534.6Z" fill="#080a3a"/><path d="M1.3-581.6c-1.6,3.4-1.6,3.7.1,5.5,3.7,4.1,18.8,5.4,21,1.9.8-1.3.5-2.3-1.4-4.3-1.3-1.4-3-2.5-3.7-2.5a11.591,11.591,0,0,1-4.1-1.4,34.432,34.432,0,0,0-6.4-2C3.2-585.1,2.9-584.9,1.3-581.6Z" fill="#080a3a"/><path d="M862.5-535.3c-1.6.1-16,1-32,1.8-29.2,1.5-35.5,2.4-38.8,5.3-1.4,1.3-2.2,1.4-3.7.4-5.9-3.6-31.3-7-46-6-5.8.4-38.6,1.2-73,1.8-62.2,1.1-76,1.7-81.3,3.9-1.8.7-8.8,1-19.1.8-13.2-.2-16.6.1-18.1,1.3-1.9,1.6-6.9,1.7-21.6.3-11.4-1.1-13.4-.6-13.4,3.5,0,1.8-.5,3.2-1,3.2-1.3,0-4-4.6-4.9-8.4-.7-2.7-.9-2.8-4.9-2.1a73.217,73.217,0,0,1-12.2.4c-4.4-.2-37.5-.4-73.5-.4-52,0-66.1.3-68.6,1.3-2.8,1.2-3.3,2-4.2,7a76.057,76.057,0,0,0-.9,13.2l.2,7.5,17-.1c84.4-.6,177.4-.4,188,.3,7.2.5,13.6.7,14.3.5s1.2-2.1,1.2-4.2c0-3.8,2-6.6,2.8-4a25.549,25.549,0,0,0,3.7,4.8c3.7,4.1,1.6,3.9,36.2,2.7l22.1-.8-.5-3.2c-.5-2.9-.2-3.3,2.4-3.8a44.016,44.016,0,0,1,9.8.4c18.5,2.6,23.5,3.7,34,7.9,9.3,3.7,18.7,6.3,21,5.9,3-.6,2.9-2.8-.2-3.4-5.5-1.1-10.5-3-10.3-4,.1-1.1,3.2-3,7.5-4.6l3-1.1-2.6-1.2c-4-1.7-5.9-3.6-5.9-6,0-6.2,8-9.6,17.4-7.5,3.1.7,6.1,1.8,6.7,2.6,1.3,1.5,10.5,1.8,11.4.3.3-.6-.3-2.2-1.5-3.7-2.3-3-2-3.6,3.2-5.3,4.9-1.5,25.7.7,26.5,2.8,1,2.5-1.4,3.4-10.5,3.6-9.1.3-11.7,1-10.7,2.7.8,1.2,13,1.1,22-.1,10.8-1.5,55.6-2.2,69-1.1,7,.5,14.4,1.8,17.5,2.9a91.916,91.916,0,0,0,12.8,3.2c6.4,1.2,8,1.1,14.7-.5l7.4-1.9,4.4,2.2c5.4,2.7,11.7,2.9,14.7.4,1.9-1.6,2.3-2.8,2.4-9.6.1-9-.5-9.8-8.6-11.5C883.3-535.9,869.6-536.1,862.5-535.3Zm-1.2,7.2c5.5,3.1,3.5,4.1-9.5,4.3-9.6.2-12.8-.3-12.8-2q.15-3.45,7.2-4.2C852.9-530.8,857.7-530.2,861.3-528.1Z" fill="#882623"/><path d="M646.4-454.5c-1.2,3.1,7.1,7.5,14.2,7.5,4,0,7.4,1,7.4,2.2,0,2-7.3,4-12.2,3.4a26.077,26.077,0,0,0-10.2.9c-5.3,1.6-9.8,1.3-12.3-.8-1.7-1.3-1.6-5.7.1-7.6,4.4-4.9-4.2-5.7-37.4-3.4-12.1.9-20.3.9-26.5.3-10.2-1.1-50.7-.4-66.5,1.1-23.8,2.4-27.1,2.9-34.4,5.4-8.7,3-11.7,2.8-13.4-1-.6-1.4-1.7-2.5-2.4-2.6-4-.1-122.5.1-168.8.3-50.7.3-54.9.4-60.2,2.2-4.9,1.7-6.1,1.8-8.2.6-2.1-1.1-2.9-1-6.1,1-3.8,2.4-6,2.4-16.5.1a34.147,34.147,0,0,0-11.1,0c-9.6,1.5-48.9.5-65.4-1.5-13.5-1.7-31.4-1.7-35.7-.1-1.2.5-1.8,1.8-1.8,3.6,0,2.7-.2,2.9-4,2.9a17.106,17.106,0,0,1-6.8-1.4c-4.6-2.3-18.9-3.9-42-4.5-12.2-.3-22.7-.5-23.2-.3-.6.2-1,4-1,8.4,0,9.6,2.4,14.7,9.2,19.7,4.9,3.6,7.3,3.9,8.9,1,1-1.9,1.7-2.1,5.8-1.6a31.87,31.87,0,0,1,9.7,3.3c4.4,2.4,6.2,2.7,17.9,3.1,17.6.7,32-.9,39.3-4.4l5.7-2.7,42.4.2,42.3.3,2.3-2.5a50.288,50.288,0,0,0,4.4-5.9c2.9-4.7,5-5.4,7.3-2.5,2.5,3.2,2.3,3.6-2.1,4.8-4.6,1.2-7,3.5-5.3,5.2.7.7,19.6,1.2,61.9,1.4,62.4.4,93.7,1.5,114.8,4,14,1.6,31.3,1.8,51.5.3,8-.5,35.4-1.4,61-1.8,49-.9,53-1.3,53-5.4,0-2.5,6.9-8.6,12.4-10.9,4.6-1.9,13.3-2.2,24.6-.8,17.7,2.3,19.7,2.3,24.5.7,4.2-1.5,5-1.5,7.6-.1,2.6,1.3,3.2,1.3,5.9-.1,2.5-1.3,11.2-1.5,63.7-1.5,59.3-.1,106.3-1.2,113.3-2.8,2.5-.6,3.6-1.4,4-3.2.7-3,5.3-4,7.9-1.6,5.2,4.7,35.9,6.1,70.9,3.1,9.7-.8,20.2-1.6,23.2-1.7,5.4-.3,5.4-.3,6.3-4.1.5-2.1,1.6-4.1,2.3-4.4,2.4-.9,1.5-2.9-1.9-4.1-4.3-1.6-42.8-1.6-53.2-.1-4.9.8-8.3,1.8-9.3,2.9-1.6,1.7-10.3,5.3-16,6.7-2.3.5-15.4-1.9-19.9-3.7-1.4-.6-2-1.5-1.7-2.4.8-2.2-.9-2.4-30.6-3.6-34.9-1.3-65-1.3-83.7.2-13.5,1-15.9,1-20.5-.4a67.849,67.849,0,0,0-10-2.3C647.8-456.1,646.9-455.9,646.4-454.5Zm-161.6,10c3.8-.5,6.2-.1,11.6,1.9a36.442,36.442,0,0,0,15,2.6c8,0,8.3.1,10.5,3.1a14.763,14.763,0,0,0,4.7,4.1,3.933,3.933,0,0,1,2.4,3c0,1.5-.8,1.8-5.1,1.8-3.7,0-5.5.5-6.4,1.7-1.1,1.4-1.6,1.5-4.3.4-2.5-1.1-3.4-1-5.4.2-2.1,1.4-6.9,2.2-11,1.8-3.4-.2-1.9-2.9,2-3.6A18.278,18.278,0,0,0,504-429c1.3-.8,1.2-1.1-.5-2.4-3-2.3-11.7-4.6-17.3-4.6-5.7,0-10.2-2.8-10.2-6.4,0-2.9,1-3.9,2.6-2.5C479.4-444.2,481.8-444.1,484.8-444.5ZM275.3-422.7a18.085,18.085,0,0,1-7,.2l-3.8-.8,3-.6a31.594,31.594,0,0,1,7-.2l4,.4Z" fill="#882623"/><path d="M543.3-427.4c-.3.9.9,2.7,3.3,4.8l3.9,3.4,18.5.6c10.2.4,30,1.1,44,1.7,14,.5,39.5,1.1,56.5,1.2,30.3.2,31,.2,31-1.8,0-2.9-4.3-3.3-47.5-4.5-46.9-1.3-65.9-2.4-68.9-3.9-2.3-1.3-7.5-1.7-27.9-2.5C545.9-428.8,543.8-428.7,543.3-427.4Z" fill="#882623"/><path d="M708.3-418.7c-1.5,2.5,3,3.1,28.4,3.9,46.9,1.6,58.3,1.6,58.3.1,0-.7-1-1.9-2.2-2.7-1.9-1.2-9.6-1.5-43.1-1.8C727.2-419.4,708.6-419.1,708.3-418.7Z" fill="#882623"/><path d="M838.2-416.3c-3.7.7-2.3,3.6,2.2,4.5,5,1.1,13.1-.3,13.1-2.2C853.5-416.4,845.1-417.6,838.2-416.3Z" fill="#882623"/><path d="M867.8-415.3c-5,.5-4.8,1.6.7,3.2,3.6,1.1,5.3,1.1,9.5,0,5.8-1.5,6.3-2.4,1.9-3.3C876.7-416,874.6-416,867.8-415.3Z" fill="#882623"/><path d="M601.5-370.2a10.983,10.983,0,0,0-2.1,2.7c-1,1.9-2.5,2-25,2.7-24.3.6-44.2,2.6-48.2,4.7-1.5.8-2.2,2.1-2.2,4.2,0,3.5-2.9,5-10,5.2-3.4.2-4.5-.2-4.5-1.3,0-.8,1.9-2.1,4.5-3,2.5-.9,4.5-2.2,4.5-3,0-3.2-4.6-4-23.5-3.9-21.1.1-25.5.9-28,5.4-1.6,2.9-2,3-8.6,3h-6.9v3c0,3,0,3-6.3,3.3s-6.3.3-6-2.4c.3-2.2-.3-2.8-4.2-4.4a22.658,22.658,0,0,0-7.2-1.9c-3-.1-9.5-3.1-14.3-6.6-8.8-6.4-17.2-5.8-20.8,1.5-1.2,2.2-1.9,2.5-5.8,2.2-5-.3-9.3-2.9-9.7-6.1-.3-2-.9-2.1-9.2-2.1-10,0-24,1.7-25.4,3.1-2.1,2,1.6,3.1,14.3,4,14.6,1.1,18.4,2.1,17.9,4.5-.8,4.3-14.9,5.3-66.3,4.4-12.1-.2-20.3.2-28.5,1.4-23,3.3-34.1,4-43.7,2.6-18.6-2.9-55-2.1-74.4,1.6a82.91,82.91,0,0,1-10,1.4c-1.3,0-4.4,1.2-6.9,2.7-5.1,3.1-2.6,3-95,3.5-40.4.3-43.8.4-46.4,2.1-1.7,1.2-2.5,2.2-1.9,2.8,1.9,1.9,18.9,2.9,50.3,3,31.1,0,42.1-.8,43.6-3.2.8-1.4,3.6-1.1,5.6.8,2.8,2.5,31.6,3.1,123.8,2.8,64.7-.2,76.3-.5,81.1-1.8,4.9-1.4,6.6-1.4,13.5-.2,8.3,1.4,23.9,2.1,38.8,1.7l8.9-.2-.7-4.1c-.4-2.2-.4-4.4-.1-4.9.8-1.2,6.3.8,10.6,4,3.3,2.3,5.3,2.8,19,4.1,21.3,2,96.8,2,109.1,0,7.5-1.2,9-1.2,10.4,0,1.2,1,4.5,1.4,11.3,1.4,8.9,0,9.9-.2,13.7-2.8,3.2-2.1,5.1-2.8,8-2.5,3.4.3,3.9.6,3.7,2.5-.2,1.8.2,2.3,2,2.3a5.508,5.508,0,0,0,3.4-1.1c.9-.9,4.4-.8,14,.1,8.5.8,35.5,1.3,80.3,1.5,65.6.2,92.2-.4,102.5-2.4,3.3-.6,8.8-.6,16.5.2,6.3.6,30.5,1.1,53.8,1.1l42.3.1,1.7-2.3,1.8-2.3,4.9,2.8c4.1,2.3,6.2,2.7,12.5,2.8h7.5l.3-10.4c.2-9.4.1-10.6-1.9-12.7l-2.1-2.2,2.1-1.1c1.6-.9,2.1-2.1,2.1-5,0-5-1.9-6.6-6.8-5.6-2,.4-12,1.1-22.2,1.4l-18.5.6-.5,2.9c-.7,3.9-2.4,4.3-5.2,1.3a17.091,17.091,0,0,0-5.6-3.5c-4.2-1.4-143.5-1.9-143.9-.5-.2.6.3,1.6,1.2,2.3a4.12,4.12,0,0,1,1.5,2.1c0,2-4.5.7-8.3-2.4l-4.1-3.2H632.8l-2-2.8-2-2.7H615.7C608.4-371,602.1-370.6,601.5-370.2Zm13.7,5.9a6.8,6.8,0,0,1,1.8,4.5c0,3.5,2.2,4.6,5.2,2.6,2-1.3,2.8-1.1,9.7,2.4,8.3,4.3,10.1,6,10.1,9.5,0,3.4-1.9,3.6-7.4.8a24.184,24.184,0,0,0-8.8-2.5,12.158,12.158,0,0,1-6.8-2.1l-2.8-2.2-4.6,2.2c-4.9,2.4-13.6,2.6-14.4.3-.2-.6.3-1.2,1.2-1.2s2.3-1.1,3.2-2.5a9.6,9.6,0,0,1,3.7-3.1c3.5-1,5.7-3.5,5.7-6.4C611-366.2,612.3-367,615.2-364.3ZM583.6-359c3,1.2,3.1,2.6.3,4.1-2.4,1.3-7.7.5-10.4-1.5-1.7-1.2-1.7-1.6-.5-3.1C574.4-361.2,578.2-361,583.6-359Zm90.4,1c1.2.7,1.2,1.2.2,2.2-1.6,1.6-1.5,3.3.4,5.2,1.8,1.8,1.1,3.6-1.5,3.6-2.2,0-7.1-4.4-7.1-6.4,0-1.3,4.5-5.6,5.9-5.6A7.323,7.323,0,0,1,674-358Zm207.3,2.7c.6.3.2,1.2-.9,2-1.5,1.1-1.7,1.7-.6,3.3,1,1.7.8,2.2-1.3,3.6-3.2,2.1-5.1,1.3-6-2.5a8.738,8.738,0,0,0-2.1-4.2c-1.9-1.5-1.8-2.6.4-3.3C872.8-356.9,879.8-356.2,881.3-355.3Zm-291,7c-.6,8.8-.9,9.5-3.5,9.1-2.8-.4-3.6-3.5-1.2-5.2,1.3-1,1.6-2.1,1.1-4.4-.8-4,0-6.2,2.3-6.2C590.6-355,590.7-354.2,590.3-348.3Zm135.5-5.5c2.3,2.3,1.2,2.8-6,2.8-5.7,0-7.9-.5-9.8-2l-2.5-2h8.6C721.4-355,725-354.6,725.8-353.8Zm-332,2.2c3.1.8,10.8,2.2,17.1,3.1,13.4,2,14.1,2.2,14.1,4.5,0,2.1-6.6,6.4-8.7,5.6a4.3,4.3,0,0,0-3.2.6c-1.5.9-2.9.7-6.9-1a28.074,28.074,0,0,0-6.9-2.2c-4.7,0-9.5-2.2-11.3-5.3-2.2-3.5-2.6-6.7-1-6.7A56.726,56.726,0,0,1,393.8-351.6ZM742-349.2a4.188,4.188,0,0,1-2,3c-1.8,1.1-2,1-2-1.1,0-2.5,1.8-4.9,3.2-4.1A3.2,3.2,0,0,1,742-349.2Zm-13.2,5a4.624,4.624,0,0,0,2.8,3.3c1.4.5,2.2,1.3,1.9,1.9-.9,1.5-4.1,1.2-5.5-.5-.7-.8-3-1.8-5.1-2.1-4.4-.7-5.2-2.9-1.6-4.4C725.1-347.6,728.5-346.8,728.8-344.2Zm13.7,2c0,1.8-2,1.5-2.3-.4-.3-1,.1-1.5,1-1.2A2.062,2.062,0,0,1,742.5-342.2Z" fill="#882623"/><path d="M449.6-362.8c-1.4,2-1.4,2.4-.1,3.7,1.1,1.1,2.1,1.3,4.2.5q4.95-1.65,1.8-4.8C453.3-365.6,451.4-365.4,449.6-362.8Z" fill="#882623"/><path d="M252-289.1c-6.6.9-9.2,2-8.7,3.5.2.7,5.6,1.3,15.3,1.7,15.3.6,17.9,1,18.8,3.4s-1.4,2.8-13.3,2.6c-9.1-.2-13.1-.8-18.7-2.7-8.3-2.7-17.9-3.2-21-1-1,.8-1.6,1.7-1.2,2.1s6.9,1.8,14.4,3.1c14.1,2.4,16.1,3.2,15.1,5.7-.4,1.1-2.9,1.7-8.4,2.2-9.9,1-45.6-.3-49.2-1.7-4.1-1.6-24.6-2.1-36.1-.8-5.8.6-16.1,1.4-23,1.7-11.3.5-14,.2-28.5-2.6a241.029,241.029,0,0,0-24.2-3.8c-7.9-.6-8.3-.5-8.3,1.5,0,4.9,16.4,12.2,27.8,12.2,3.1.1,9.1.5,13.2,1.1,4.7.6,52.8.9,127,.9,65.7-.1,120.3.2,121.3.6,4,1.5-1.1,2.4-14.3,2.5-13.7,0-20.2,1-15,2.3,9.6,2.2,133.5,3.7,143.9,1.7,2.5-.5,5.1-1.7,5.8-2.7,1.1-1.5,1.6-1.6,4-.4,2.3,1,36.5,1.3,179.8,1.6,103.1.2,184.1.7,194,1.3,15,.9,28.5,1.4,32.3,1.2.9-.1,1.2-3.5,1.2-13.5,0-12.7-.1-13.4-2.5-16-2.6-2.8-4-3-14.8-2.6-5.4.2-7.2-.2-8.8-1.6-1.8-1.7-2.2-1.7-7.3-.1a45.061,45.061,0,0,1-11,1.7c-4.9,0-5.9-.3-6.3-2-.6-2.4-1.3-2.5-6.1-.4-2.8,1.3-10.6,1.9-33.2,3-24.5,1.1-140.3,3.8-150.5,3.4-31.1-.9-45.4-1.8-48.2-3s-3.4-1.2-5.1.3c-2.4,2.2-7.6,2.2-15.2,0-5.1-1.4-6.8-1.4-10.8-.4-12.2,3.1-133.5,3.4-141.3.3a18.588,18.588,0,0,1-5.1-3.5c-2.1-2.1-3.9-2.6-10.3-3.2-10.5-1-23.9-.1-26.8,1.8-2.1,1.3-2.9,1.3-7.8-.1-4.1-1.1-10.6-1.5-26.4-1.6-18.5-.1-21.4.1-24.3,1.7-3.2,1.8-3.6,1.8-7.5.1-3.7-1.6-8.2-1.8-36.7-2C272.1-289.7,255-289.5,252-289.1Zm60.2,8.7c12.6,1,19,5.4,13.9,9.6-1.9,1.5-4.1,1.8-12.7,1.8-9.5,0-11.1-.3-17.1-3-3.6-1.7-7.4-3-8.4-3-2.9,0-3-1.6-.3-4.5,2.4-2.6,2.8-2.7,9.2-2.1C300.5-281.3,307.4-280.7,312.2-280.4Zm82.5,1.1c.9,2.5-3.4,3.4-10.7,2.2-6.2-1.1-7.6-1-10.6.4-3.5,1.7-7.6,2.2-8.7,1.1-1-1,.5-3.5,2.7-4.4C370.6-281.4,394.3-280.7,394.7-279.3Zm34.8,17.9c1.1.6,6,1.4,10.9,1.7,7.2.4,9.3.9,10.3,2.3,1.2,1.6,1.1,2.1-.4,3.2-2.2,1.7-13.4.8-16.6-1.3a50.1,50.1,0,0,0-7.4-3c-5.2-1.7-6.9-4-3.5-4.7C424.7-263.7,426.6-263.2,429.5-261.4Z" fill="#882623"/><path d="M266.8-256.4c-1.4,1.4-.8,2.2,2.7,3.8,4.8,2.3,30,3.5,33.4,1.6l2.4-1.2-3.3-2.1c-3-1.9-5.2-2.2-18.9-2.5C274.5-257,267.2-256.9,266.8-256.4Z" fill="#882623"/><path d="M718.3-251c-15.1.5-18.5,1.1-14.1,2.6,3.1,1,117.6,1,120.7,0,1.3-.4,1.9-1.2,1.4-1.7C825.3-251.1,740.5-251.8,718.3-251Z" fill="#882623"/><path d="M589.5-250.1l-6,.6,6.4.7c8,1,83.8.9,90.6-.1,4.6-.6,4.1-.7-5-1.3C662-251,597-250.9,589.5-250.1Z" fill="#882623"/><path d="M780.5-617.1c-5.1,1.3-7.3,3-8,6.1-.5,2.5-1.1,3-2.8,2.8-1.5-.2-2.3-1.1-2.6-2.8-.4-3.4-1.8-4.1-7.2-3.4a13.117,13.117,0,0,1-7.4-.8c-2-1.1-3.9-1.3-7.4-.7-2.5.5-14.3,1.3-26.1,1.8s-23,1.3-24.8,1.6a27.485,27.485,0,0,1-9.2-.5c-5.1-1.1-6.1-1-8.1.4a12.906,12.906,0,0,1-6.2,1.6c-3,0-4-.4-4.4-2-.6-2.4-2.4-2.5-6.6-.3-2.2,1.1-6.6,1.8-13.7,2.1l-10.5.4-3.2-3.1c-3.8-3.6-3.8-3.6-9.5-1.7-8.4,2.8-23.6,4.6-44.9,5.2-18.9.6-22,.5-24.9-.9-4.6-2.3-11.8-2.2-14.4.2-1.8,1.6-2.9,1.8-7.1,1.1-2.8-.4-31.6-1-64-1.1l-59-.3-1.3,2.7c-1.5,3.2-2.8,3.5-3.7.8-1.1-3.5-5.6-5.4-14.5-6.2-24.7-2.3-23.5-2.3-24.9-.5-1.4,1.7-1.3,5,.7,18.6,1.3,8.5,2.9,12,5.7,12,4.4,0,17.9-3.9,20.8-6,2.4-1.8,3.3-2,5.5-1.1,6.4,2.4,16.5,3.3,45.7,3.8,21.7.4,33.9.1,40.5-.7,5.2-.7,12.5-1.4,16.2-1.6a68.93,68.93,0,0,0,12-1.8c8.5-2.4,25.8-3.9,29.2-2.6,2.1.8,3.2.7,4.2-.1s2.2-.9,4.1-.1a48.275,48.275,0,0,0,8.3,1.8c3.7.4,5.9,1.3,6.8,2.5,1,1.5,2.5,1.9,6.5,1.8,11.8-.1,16.5-4.9,8.7-8.9-5.6-2.9-4.7-4.4,2.9-4.8,7.8-.4,11.1,1.4,11.1,5.9,0,4.2,3.7,7.6,9.1,8.3,2.4.3,12.5,1.2,22.4,2.2,9.9.9,21.8,2.5,26.4,3.6s9.4,1.7,10.7,1.4a8.509,8.509,0,0,1,5,.9c4.9,2.5,17.7,2,27-1.2l7.9-2.6,48-.7c51.4-.8,80.3-2.3,84.7-4.6,3.5-1.8,4.8-1.8,6.2.1,3.4,4.7,48.6,4.5,53.9-.2,1.4-1.3,1.7-3.3,1.7-10.6,0-7.5-.3-9.4-2.1-11.9-2.1-2.9-2.4-3-7.3-2.3a58.469,58.469,0,0,1-7.1.5c-1.1,0-19.5-.5-41-1-30-.7-40.3-1.2-44.8-2.4C787.5-618.1,785.2-618.2,780.5-617.1ZM677.7-603.3c.3.7-.7,2.4-2.1,3.8-2.2,2.2-2.8,2.4-4.6,1.3a4.359,4.359,0,0,1-2-3.1C669-604.4,676.8-606.2,677.7-603.3Z" fill="#882623"/><path d="M822.4-701c-11,.8-12.6,1.3-11.7,3.5.4,1.2-.7,1.5-5.8,1.5-7,0-10.9.8-10.9,2.1,0,.5,1.9,1.8,4.1,3,4.5,2.3,7.7,2.2,22.1-.2,6.8-1.1,8.4-1.1,12.9.4,5.2,1.6,5.2,1.6,8.5-1,4-3,4.2-4.3,1-7.7C840-702.3,840.2-702.2,822.4-701Z" fill="#882623"/><path d="M373.2-701.1c-6.2.5-7.7,1-9.4,3.1a5.625,5.625,0,0,0-1.4,5c2.6,11.1,2.9,14,1.8,16.5-1.5,3.2-1.5,6.3-.1,10.3,1.5,4.4,5.9,5.7,16.3,4.6,4.4-.4,17.6-.8,29.3-.8l21.1-.1,2.2-2.8c2.1-2.7,2.2-2.7,14.5-2.7,7.7,0,12.6-.4,13-1.1,1.8-2.8,9-2.9,53.5-.4,24.8,1.5,72.2,2.5,156,3.4,49.2.6,104.6,1.5,123,2,18.4.6,49.1,1.4,68.3,1.7l34.8.7-.3-14.9-.3-14.9-11,.1c-6.2,0-12.7.6-14.8,1.3-4.7,1.6-8.3.8-9-2-.5-1.9-1-2.1-4.4-1.4a36.76,36.76,0,0,0-8.2,2.6,25.36,25.36,0,0,1-6,1.9,5.032,5.032,0,0,0-2.9,1.2c-.9.9-6.7,1.4-19.6,1.6-15.3.3-18.9.1-21.4-1.2-3.8-2-9.4-2.1-13-.2-6.6,3.2-30.8,5.2-40.4,3.3-3.8-.8-9.8-5-9.8-6.9,0-.6,1.3-.8,3.3-.3a22.259,22.259,0,0,0,10.9,0c1.9-.5,4-.1,6.4,1,3.5,1.6,3.9,1.6,16.7-1.5,17.3-4.1,16.7-3.9,16.7-5.7,0-1.4-3.2-1.5-29.1-.9-16,.4-30.3,1.2-31.7,1.7-1.9.8-7.6.7-18.7-.1-15.2-1.2-30.1-.9-39.2.5-3.3.6-5,.2-8.3-1.6-3.9-2.2-4.2-2.2-6.9-.6-2.5,1.5-5.9,1.7-23.4,1.7-20.5,0-20.6,0-23.5,2.5-3.3,2.8-6.8,3.2-9.6,1-2.5-1.9-5.2-2-56.8-2H499.2l.1-2.5c.2-2.5.1-2.5-10.3-3.1C475.8-701.9,383.1-701.9,373.2-701.1Zm215.8,10c0,1.3-2.7,2.1-7.1,2.1-4,0-5.3-1.5-2.1-2.3C582.9-692.1,589-692,589-691.1Zm125,2.6c2,2.2,3.2,2.5,8.9,2.5,7.8,0,11.3,1.5,6,2.5-5.8,1.1-27.6.5-29.6-.8-3.8-2.4,1.7-6.6,8.8-6.7A7.319,7.319,0,0,1,714-688.5ZM555.9-687c3,.1,3.3.2,1.8,1.1-2.5,1.5-34.7,2.4-32.7,1,.8-.6,4-1.1,7-1.1s6.2-.5,7-1.1c.9-.6,4-.8,7.4-.5A92.535,92.535,0,0,0,555.9-687Z" fill="#882623"/><path d="M841.5-785c.3.5-.5,1.5-1.8,2.1-2.5,1.1-5.7,6.6-5.7,9.7a6.848,6.848,0,0,1-1.3,3.5c-1.1,1.6-2,1.6-9.2.7-10.1-1.4-11.5-1.8-11.5-3.5,0-1.8,1.6-2.7,5.8-3.4,9-1.6-1.7-4.6-12.4-3.5-6.9.7-13.7,4-14.3,6.9-.2,1.3.8,2.9,2.9,4.6l3.2,2.7-2.3,1.2c-4.1,2.3-44.8.8-45.6-1.6-.7-2.1,6-3.6,18.6-4.3,9.2-.4,12.6-1,12.9-2,.4-1.1-2.2-1.2-14.9-.8-8.5.3-18.1,1-21.4,1.6-3.2.5-18.4,1.5-33.6,2.2-34.6,1.5-61.9.2-72-3.4-6.3-2.2-7.2-2.2-56.4-2.2-43.5,0-50.7-.2-55.6-1.6-6.5-2-13.6-1.2-15.2,1.7-2.8,5-5,6.1-14.3,6.8-12.6,1-18.4,3-24.8,8.8-3.7,3.2-5.7,4.4-6.2,3.7-.4-.7,0-1.7.9-2.4,2.7-1.9,2.1-5.4-1-6.6-1.6-.6-9.8-1.4-18.4-1.8-14.9-.7-15.8-.9-18.8-3.4-3.9-3.3-4.9-3.4-41.9-4.8-31.3-1.1-33.2-1-33.2,2.7a60.5,60.5,0,0,0,1.7,7.5l1.6,6,1.4-3.1c1.2-3,1.4-3.1,3.5-1.6a8.2,8.2,0,0,0,4,1.6c2.6,0,2.2,1.9-.5,2.9a9.653,9.653,0,0,0-3.6,2.5,4.3,4.3,0,0,1-2.8,1.6c-1.2,0-1.4.7-.9,3.2a9.775,9.775,0,0,0,1.7,4.3c1,1,18.5,1.9,63.7,3.1,29.6.8,30.9.5,38.6-6.5l3.8-3.6-.6,3.7c-.6,3.2-.4,3.8,1.1,3.9,4.1.3,19.2-.3,41.8-1.7,17.7-1,47.2-1.4,112.5-1.5,48.7,0,90.1,0,92,.2a60.835,60.835,0,0,0,11-1.2c6-1.1,19.6-1.4,66.5-1.4,64.9,0,83.7,1,88.3,4.5,3.2,2.5,6.4,2.5,8.7,0a6.007,6.007,0,0,1,3.6-2c4.4,0,4.9-2.2,4.9-20.1V-786H868.4C850.4-786,841.1-785.7,841.5-785ZM635.6-762.9c.3.6-.1,1.8-1,2.7-5.5,5.5-30.3,5.4-31.4-.1-.2-1,.6-2.1,2-2.6C608.6-764.3,634.7-764.3,635.6-762.9Zm-170.8,6.1c.3,1.5-.4,1.8-3.6,1.8-6.3,0-9.8-2.1-5.4-3.3C459.6-759.4,464.5-758.5,464.8-756.8Z" fill="#882623"/><path d="M3.3-198.3c-1.9.7-1.9,130.9-.1,131.5,2.1.7,66.3.2,82.2-.6,26.4-1.4,35.6-5.6,43.3-20.1,2.4-4.5,2.7-6,2.7-16,0-11.8-1.4-16.9-6.9-24.1-3.1-4.1-3.1-5.2.1-9.5,5-6.7,6.8-11.4,7.9-21.5.4-3.3-1.4-11.9-3.5-16.7-2.4-5.4-9.4-13.3-15.8-18l-2.835-2.423-5.72-1.665L58-197.4c-27.8-.4-51.2-.9-52-1.1A4.846,4.846,0,0,0,3.3-198.3Zm97.2,20.4c5.5,1.5,12.1,8.7,13,14s-.2,12.2-2.3,14.7c-5.4,6.1-15.8,7.4-59.2,7l-31.5-.3-.3-17c-.1-9.3,0-17.5.2-18.2C21.1-179.4,94.4-179.6,100.5-177.9Zm3.5,57.4a27.96,27.96,0,0,1,6.5,6.4c2.5,3.5,3,5.2,3,10.1s-.5,6.6-3.1,10.2c-4.9,7-5.6,7.1-49.4,7.7-21.2.4-39.1.4-39.7.2-1.8-.5-1.8-34.2,0-36,.9-1,9.7-1.2,40.2-.9C98.7-122.5,100.7-122.4,104-120.5Z"/><path d="M149.8-197.5c-1.3,1.3-1,129.3.3,130,1.7,1.1,14.2,1.3,16.2.3,1.5-.8,1.7-2.7,1.7-18.2,0-14.9.2-17.5,1.6-18,.9-.3,14.9-.6,31.2-.6h29.7L245-89.4c20,20.1,27.6,24.8,34.1,21.4,2.8-1.6,2.4-6.8-.9-12.1a166.358,166.358,0,0,0-12.7-14.8l-9.9-10.5,2.9-2c9.4-6.9,12.8-10.2,15.8-15.4,5.7-10.1,6.7-14.3,6.7-28.3,0-10.9-.3-13.5-2.5-19.4-3.2-8.9-6.5-13.6-14.8-20.7l-3.851-3.281-1.88-1.6-1.228-.67-5.915-1.116-8.282-.5c-7.8,0-31.314-.2-52.714-.5C168.431-199.271,150.2-197.9,149.8-197.5Zm100,20.1c10,4.1,12.7,10.7,12,29.9-.7,23.7-2.5,24.4-56.8,24.5-25.6,0-34.9-.3-35.8-1.2-1.8-1.8-1.7-53.4.1-54.1.6-.3,18.2-.6,39-.6C240.3-179,246.6-178.8,249.8-177.4Z"/><path d="M332.5-197c-6.9.9-11,2.3-17.7,6.2-5.3,3.2-12.8,11.2-12.8,13.8a16.443,16.443,0,0,1-1.4,5.1c-2.2,5.4-3.6,32.8-3.6,69.1V-69l2.3,1.3c2.3,1.5,15.1,1.6,16.5.2.4-.3.9-8.6,1.2-18.3l.5-17.7h92l.3,17.4c.1,9.6.7,18,1.2,18.6,1.5,1.8,15.9,1.3,17.1-.6,1.1-1.8,1.1-64-.1-82.9-1.8-29.7-7-38.6-26-44.5-4.5-1.4-10.5-1.8-34.5-2C351.6-197.7,335.8-197.5,332.5-197Zm67.4,20.5a28.876,28.876,0,0,1,6.5,5.8l3.1,3.9v43.3l-46.2.3-46.2.2-.3-2.2c-.2-1.3-.1-10.9.2-21.3.4-16.6.7-19.4,2.5-22.4,5.1-8.7,11.9-10.1,49-9.8C394.5-178.5,396.7-178.4,399.9-176.5Z"/><path d="M449.2-196.8c-.9.9-1.2,16.7-1.2,65,0,59.7.1,63.8,1.8,64.6,2,1,57.8.8,77.4-.2,35.5-1.9,47.6-9.9,51-33.5,1.5-11.1.4-55.2-1.8-66.1-4.3-21.5-13.2-27.9-41.9-30C515.7-198.4,450.7-198.3,449.2-196.8Zm104.2,24.5,6.7,6.8-.4,31c-.4,33.5-1.1,38.7-6,43.3-5.1,4.8-8.2,5.1-47.5,5.2-20.2,0-37.3.1-37.9,0-1,0-1.3-9.9-1.3-45.8,0-25.2.3-46.2.7-46.5.3-.4,18.3-.7,39.8-.7h39.2Z"/><path d="M587.7-197.4c-.4.4-.7,7.2-.7,15.1v14.5l16.7,18.1c9.2,10,17,18.4,17.3,18.7s5.4,5.8,11.3,12.2L643-107v19.4c0,17.6.2,19.6,1.8,20.4,1.9,1,14.4.8,16.1-.2.7-.5,1.1-7.4,1.1-21.5v-20.9l7.8-8.3c4.2-4.6,9.5-10.4,11.7-12.8,2.2-2.5,6.7-7.4,10.1-11,3.3-3.6,8.5-9.3,11.4-12.6,3-3.3,5.6-6.2,5.9-6.5s2-2.1,3.8-4c3.2-3.5,3.3-3.8,4.3-16.9.7-9.7.7-13.8-.1-14.8-.8-.9-3.6-1.3-8.9-1.3-11.4,0-11.2-.2-10.4,8.9.9,10.9.4,11.8-20.1,34.7-13.1,14.6-25.1,26.4-26.8,26.4-3.5,0-19.4-17.3-32-34.7-9.6-13.2-13.1-20.4-13.7-28.3l-.5-6.5-8-.3C592-197.9,588.1-197.8,587.7-197.4Z"/><path d="M731.2-196.8c-1.9,1.9-1.7,34.4.2,35.5.8.4,5,.6,9.3.3l7.8-.5.3-16.9c.2-11.6-.1-17.3-.9-18.2C746.4-198.4,732.9-198.5,731.2-196.8Z"/><path d="M803.5-197c-14,1.5-22,5.1-28.9,13.2-6.2,7.2-7.8,11.9-7.9,22.8-.1,8.5.2,10.1,2.8,15.4A39.783,39.783,0,0,0,795-124.8c1.9.5,15.9,1.3,31,1.8,29.1.8,38,2.1,46.5,6.5,5.6,3,8.1,8.4,6.5,13.9-3.4,11.4-10,15.6-27.7,17.7-17.1,1.9-43.5-1.1-56.6-6.6-2-.8-5.8-3.8-8.5-6.6-9.8-10.2-22-8.4-19.3,2.9,3.3,13.7,11.8,21.8,27.1,25.5,16,3.9,58.9,3.9,75,0,16.2-4,22.5-10.2,25.6-25.2,2.6-12.9.4-26.4-5.4-33.2-8.1-9.4-23.1-12.7-65.7-14.4-28.2-1.2-39.5-5.3-39.5-14.4,0-14.2,9.5-20.4,34.9-23.2a93.186,93.186,0,0,1,23,.1c22.9,2.4,33.7,7.1,36,15.6l.7,2.9h16.9l-.1-4.5c0-6.5-4.4-14.4-11.8-21.5-9.3-8.9-13-9.7-46.1-10.1C823.2-197.7,807.9-197.5,803.5-197Z"/><path d="M90.679-43c-37.567.5-75.9-.4-81.978,0C-1.463-42.5,0-40.6,0-38.9A1.757,1.757,0,0,0,1.794-37c.9,0,9.965.3,20.129.7,27.7,1.1,325.947.8,504.715-.5,127.064-.958,170.654,1.511,179.2.482.937-.11,1.328-3.314,1.161-3.482a1.926,1.926,0,0,0-1.161-.808C686.406-43.023,225.776-44.668,90.679-43Z" fill="#aaa"/><path d="M4.255-8.428C-.445-7.428-.9-4.5.7-2.9,2.1-1.5,687-1,701.4-2.4c4.8-.4,2.714-4.206,2.314-4.606C701.214-9.406,625.9-7.2,324-7.5,151-7.7,6.355-8.828,4.255-8.428Z" fill="#aaa"/><path d="M803.7-43.3c-1.4,1.3-.6,3.4,4.8,12.5,5.9,9.9,8.5,16.9,8.5,22.9,0,3.6,2,6.9,4.1,6.9,3.5,0,4.7-2.1,5.4-9.5.7-7.8,3.7-15.3,9.8-24.3,3.2-4.7,3.2-7.6,0-8-2.7-.4-7.4,4.4-11.2,11.3-3.6,6.6-5.4,6.8-8,1-2.5-5.6-5.3-9.4-8.9-11.7C805.2-44.2,804.6-44.3,803.7-43.3Z" fill="#aaa"/><path d="M853.8-41.3C852-37,851.6-7.1,853.3-4c1.4,2.6,4.5,2.9,5.9.7.4-.7.8-5.8.8-11.4s.4-10.4.8-10.7c.4-.2,1.9,1.9,3.2,4.7C867.1-14,872.6-7,874.9-7a6.173,6.173,0,0,0,3.7-2.1c2-2.2,6.7-9.8,8.4-13.7,1.9-4.4,3-1.1,3,9.3,0,11.7.8,13.1,6.9,11.9,2.6-.6,3.1-1.1,3.1-3.5,0-1.7-.5-2.8-1.2-2.7-1.7.4-2.6-6.6-2.7-20.3-.1-11.6-.8-13.9-4-13.9-2,0-6.7,7.1-11.7,17.2C877.9-19.7,876-17,875-17c-1.1,0-3.5-3.6-7.1-10.6C862.7-38,858.3-44,856.1-44,855.5-44,854.4-42.8,853.8-41.3Z" fill="#aaa"/><path d="M767-41.5c-5.1,1.9-10.7,7.7-12,12.6-2.5,9.1,1.4,18.6,10,24.4,4.1,2.7,5.3,3,12.5,3C788.9-1.5,791-3,791-11.1c0-5.2-.3-6.3-2.6-8.4-3-2.8-6.9-3.2-9.8-1-2.3,1.7-1.5,4.1,1.9,5.7,2.7,1.2,3.3,3.6,1.3,5.6-3.2,3.2-15.9-.1-17.2-4.6-2.5-8.5-1.3-14.6,3.7-18.8,3.1-2.6,3.4-2.6,11.9-2,7.5.6,8.9.4,9.4-.9C791.7-40.9,776.6-44.9,767-41.5Z" fill="#aaa"/></g></svg>